<svg version="1.1" id="Layer_1" xmlns="http://www.w3.org/2000/svg" xmlns:xlink="http://www.w3.org/1999/xlink" x="0px" y="0px"
	 width="100%" viewBox="0 0 496 496" enable-background="new 0 0 496 496" xml:space="preserve">
<path fill="#000000" opacity="1.000000" stroke="none" 
	d="
M150.118973,248.237228 
	C148.049408,249.800827 145.997116,249.228668 144.034775,249.372101 
	C140.724991,249.614029 139.694946,248.101166 139.959305,244.846527 
	C140.659256,236.228531 141.225388,227.595032 141.615387,218.957352 
	C142.733704,194.188797 143.685715,169.412598 144.859329,144.646820 
	C144.994934,141.785553 144.051743,137.911728 148.575989,137.036469 
	C155.804565,135.638016 159.153168,136.932846 161.379517,142.072983 
	C176.138229,176.147522 190.873138,210.232391 205.610703,244.316101 
	C206.198517,245.675568 206.971405,247.005905 206.569336,248.585434 
	C197.994141,250.828445 196.752533,250.136337 193.363678,242.316544 
	C182.041534,216.190414 170.644699,190.096619 159.231522,164.010101 
	C158.604630,162.577271 158.413605,160.700027 156.196930,160.062698 
	C154.624115,162.724854 154.623749,165.791306 154.470795,168.630203 
	C153.611282,184.581421 153.129654,200.553207 152.245239,216.502777 
	C151.665924,226.950745 151.910110,237.452591 150.118973,248.237228 
z"/>
<path fill="#000000" opacity="1.000000" stroke="none" 
	d="
M357.640137,207.291565 
	C356.746338,190.456177 355.858887,174.093063 354.971405,157.729965 
	C354.533630,157.649643 354.095856,157.569321 353.658112,157.488998 
	C351.897614,161.349823 350.081879,165.186523 348.385651,169.075378 
	C337.665100,193.654007 327.003693,218.258499 316.248535,242.821945 
	C312.962067,250.327805 312.206329,250.582565 303.565643,248.694092 
	C302.947906,246.363388 304.410583,244.543289 305.240265,242.630463 
	C319.821075,209.015366 334.450989,175.421570 349.075226,141.825333 
	C350.977661,137.454880 359.300079,135.018661 363.448517,137.597015 
	C365.331360,138.767227 365.175201,140.709702 365.218414,142.504913 
	C365.394806,149.827026 365.692749,157.138382 366.063263,164.456726 
	C367.081726,184.571335 367.507172,204.715347 368.422150,224.836151 
	C368.701660,230.983139 369.468628,237.108475 369.357300,243.283447 
	C369.299774,246.475555 369.838806,249.508636 364.757080,249.512558 
	C360.276245,249.516037 358.971344,247.805283 358.872589,243.707413 
	C358.583801,231.723343 358.071289,219.744659 357.640137,207.291565 
z"/>
<path fill="#000000" opacity="1.000000" stroke="none" 
	d="
M286.086426,311.985901 
	C278.277222,329.887573 270.556030,347.414490 263.017151,365.019470 
	C261.478607,368.612274 259.696381,370.559845 255.321732,370.444427 
	C250.998978,370.330444 248.451202,369.395508 246.613907,365.032104 
	C237.502747,343.394073 228.009140,321.917114 218.671738,300.374115 
	C218.025482,298.883087 217.553482,297.316498 217.002777,295.791565 
	C224.826599,293.140106 227.047455,294.021393 230.041458,300.898468 
	C237.419922,317.846405 244.752731,334.814209 252.121750,351.766296 
	C252.842590,353.424530 253.687057,355.029022 254.952713,357.649292 
	C257.386871,352.362732 259.509705,347.954071 261.463501,343.471741 
	C267.651947,329.274261 273.730774,315.028931 279.946838,300.843628 
	C282.970337,293.943756 284.435181,293.390869 292.997925,295.631714 
	C290.723450,301.018188 288.481171,306.328461 286.086426,311.985901 
z"/>
<path fill="#000000" opacity="1.000000" stroke="none" 
	d="
M258.403320,135.117004 
	C272.570557,137.694473 280.050232,144.860306 282.601654,157.962189 
	C282.943115,159.715759 284.007629,161.679123 281.136719,162.287903 
	C278.771301,162.789490 278.131439,161.490646 277.527161,159.375534 
	C272.900482,143.181671 259.368683,136.316696 243.398560,141.901581 
	C234.366547,145.060150 229.258728,152.688873 229.170456,163.151779 
	C229.080383,173.828690 232.983490,179.948318 242.911102,183.197083 
	C250.161789,185.569855 257.724426,186.970856 265.061554,189.102615 
	C274.511505,191.848267 282.151215,196.598236 283.834015,207.445801 
	C285.376617,217.389465 283.020996,225.942932 275.199738,232.625656 
	C256.372650,248.712158 223.249771,237.823654 218.021606,213.838074 
	C217.632141,212.051285 217.383530,210.248611 218.043625,208.252884 
	C221.429672,206.826691 222.640686,208.505753 223.390350,211.652313 
	C225.895645,222.167801 230.918655,230.715942 242.496933,232.939728 
	C250.712357,234.517609 259.063324,235.074738 266.986023,231.382660 
	C275.271515,227.521454 279.206299,220.368271 278.652100,210.637817 
	C278.204071,202.771576 273.972870,197.562225 265.014801,194.790039 
	C258.515869,192.778839 251.778168,191.550735 245.238998,189.655746 
	C227.569702,184.535416 221.105713,174.817734 223.692413,157.634964 
	C225.745728,143.995331 238.678650,134.371094 254.494705,134.732178 
	C255.656372,134.758682 256.815094,134.914215 258.403320,135.117004 
z"/>
<path fill="#000000" opacity="1.000000" stroke="none" 
	d="
M135.541779,369.898651 
	C132.909668,367.510101 134.555099,364.983429 134.644440,362.620850 
	C135.290375,345.538940 135.997375,328.459229 136.749084,311.381622 
	C136.938690,307.074280 137.568024,302.779602 137.618896,298.474670 
	C137.673386,293.863220 140.886719,294.834778 143.565414,294.676819 
	C146.401550,294.509644 148.469147,295.072540 148.279724,298.665497 
	C147.834076,307.118164 147.741058,315.593567 147.127487,324.032257 
	C146.212601,336.615051 145.579315,349.204285 145.262909,361.813782 
	C145.045532,370.476898 144.807510,370.661438 135.541779,369.898651 
z"/>
<path fill="#000000" opacity="1.000000" stroke="none" 
	d="
M366.342621,369.851196 
	C363.223511,363.870026 364.597412,357.591858 364.129883,351.590820 
	C362.815186,334.716064 362.406921,317.769287 361.735016,300.847198 
	C361.623352,298.034973 360.735138,294.846497 365.684204,294.562714 
	C370.427429,294.290710 371.758209,296.392578 372.054565,300.500366 
	C372.604340,308.121338 372.386536,315.755066 372.957184,323.394470 
	C374.032410,337.789307 374.240906,352.248566 374.834381,366.680023 
	C374.925751,368.902496 374.079254,370.211426 371.735382,370.199524 
	C370.077820,370.191132 368.420746,370.094330 366.342621,369.851196 
z"/>
<path fill="#000000" opacity="1.000000" stroke="none" 
	d="
M276.430298,268.645416 
	C277.695282,271.550537 278.807678,274.104370 280.171600,277.235596 
	C283.668121,272.915833 284.152588,267.582520 288.854614,262.809875 
	C289.216736,269.527802 289.506775,274.908264 289.796814,280.288727 
	C289.351379,280.331207 288.905945,280.373657 288.460510,280.416138 
	C286.654114,277.040314 288.214325,273.155914 287.246246,269.213654 
	C284.652740,273.116699 284.009064,277.709686 280.880341,281.314453 
	C276.982483,278.529968 276.750519,273.768707 273.862427,270.116486 
	C272.754852,273.649414 274.244690,277.371918 271.814270,280.348175 
	C271.814270,275.023651 271.814270,269.699127 271.814270,264.024597 
	C275.174225,264.430359 275.239532,266.819214 276.430298,268.645416 
z"/>
<path fill="#000000" opacity="1.000000" stroke="none" 
	d="
M321.210693,264.255310 
	C323.317657,263.883484 325.164398,263.547821 326.949066,263.752686 
	C330.672058,264.180023 332.862030,268.057343 330.372650,270.549835 
	C325.833344,275.094879 327.820923,277.845978 332.448639,280.700439 
	C327.228119,282.590271 326.929779,276.748199 323.609528,276.044983 
	C321.357147,276.692169 323.237335,279.604584 320.873444,280.688507 
	C319.010681,275.216400 320.663940,269.858063 321.210693,264.255310 
M327.651123,270.249298 
	C329.051666,268.692841 328.910278,267.222382 327.201141,266.084259 
	C325.774750,265.134491 324.247009,265.504578 323.123260,266.625336 
	C322.105774,267.640076 322.030151,269.145630 322.765778,270.311768 
	C323.946716,272.183929 325.570496,271.499237 327.651123,270.249298 
z"/>
<path fill="#000000" opacity="1.000000" stroke="none" 
	d="
M173.712219,279.320618 
	C170.894455,282.368195 167.768509,282.099335 164.741409,280.846832 
	C162.939423,280.101196 162.185883,278.399811 163.058701,275.720245 
	C165.935867,278.584259 168.761368,281.979584 172.110580,276.934235 
	C171.348755,274.126587 168.909286,274.086365 166.962402,273.442474 
	C163.937576,272.442047 162.630753,270.412384 163.174728,267.350800 
	C163.686508,264.470428 165.816391,263.009979 168.515717,262.989929 
	C171.596802,262.967072 173.632645,264.579071 174.125458,267.833435 
	C172.162186,268.517822 171.692490,267.123199 170.838013,266.474548 
	C169.692261,265.604889 168.493210,265.131622 167.176086,266.021149 
	C166.151062,266.713440 165.507141,267.721924 165.716888,268.991486 
	C165.966141,270.500275 167.126663,271.273163 168.495361,271.498657 
	C172.820770,272.211304 175.299881,274.170624 173.712219,279.320618 
z"/>
<path fill="#000000" opacity="1.000000" stroke="none" 
	d="
M210.499817,266.615326 
	C212.083206,271.377563 214.729858,275.431091 215.274521,281.084686 
	C209.429443,274.853027 208.783691,274.865143 200.531586,281.227600 
	C202.294586,275.043915 204.135208,269.799011 207.024063,265.074036 
	C208.569016,262.547150 209.621384,264.741699 210.499817,266.615326 
M209.179977,270.003265 
	C208.938126,269.584961 208.513138,268.786957 208.480576,268.802612 
	C206.576187,269.721100 206.402222,271.551331 206.509476,273.282928 
	C206.581726,274.449341 207.844238,274.800140 208.813766,274.507050 
	C211.656403,273.647705 209.473022,271.916473 209.179977,270.003265 
z"/>
<path fill="#000000" opacity="1.000000" stroke="none" 
	d="
M244.274704,279.039307 
	C243.766296,280.779358 242.542419,280.920013 242.558838,279.532837 
	C242.617905,274.540955 241.366684,269.461823 242.961197,264.274902 
	C245.128845,265.310089 243.565231,267.598999 245.078613,268.620178 
	C248.108551,268.227570 248.936615,264.132111 252.570496,264.047089 
	C252.940628,266.140869 251.430603,267.188293 250.213623,267.928558 
	C245.256104,270.944244 246.582886,274.214111 249.604355,277.609467 
	C250.462433,278.573700 251.514420,279.365417 253.096863,280.796265 
	C248.190598,282.013153 247.378067,277.634613 244.637741,275.918427 
	C244.494446,277.148071 244.403214,277.930969 244.274704,279.039307 
z"/>
<path fill="#000000" opacity="1.000000" stroke="none" 
	d="
M182.066879,275.975006 
	C182.113220,273.562958 182.147629,271.565704 182.245209,269.571503 
	C182.345245,267.527130 181.187744,264.766113 183.850418,263.872711 
	C186.494995,262.985443 189.499222,263.064514 192.104309,264.445953 
	C194.103455,265.506042 194.494354,267.504578 194.257507,269.641174 
	C193.977646,272.166107 192.260284,273.911682 190.097275,273.981323 
	C185.680817,274.123596 183.780029,276.172455 184.049103,280.850952 
	C181.674072,279.624695 182.265289,277.852020 182.066879,275.975006 
M191.966400,268.006866 
	C190.867569,266.118439 189.342499,265.150879 187.083237,265.701538 
	C185.729111,266.031555 184.544998,266.573547 184.482254,268.176453 
	C184.426971,269.588104 183.848419,271.695435 185.599167,272.013611 
	C188.353119,272.514099 191.219254,272.167023 191.966400,268.006866 
z"/>
<path fill="#000000" opacity="1.000000" stroke="none" 
	d="
M311.364471,276.645691 
	C311.806396,278.074097 312.586243,279.108093 311.574921,280.517639 
	C309.467560,279.115234 308.781708,275.974945 305.179535,276.209991 
	C301.760742,276.433105 300.578186,278.855652 298.332062,280.677765 
	C299.810394,274.646271 301.419189,268.856812 305.310822,263.159821 
	C308.561798,267.549103 309.477966,272.121674 311.364471,276.645691 
M306.241791,269.992767 
	C305.880463,269.403809 305.590118,267.963074 304.746246,269.085541 
	C303.729584,270.437927 302.780182,272.074310 303.118530,274.233826 
	C306.623383,275.121582 308.166962,274.394318 306.241791,269.992767 
z"/>
<path fill="#000000" opacity="1.000000" stroke="none" 
	d="
M234.188370,267.064911 
	C234.855591,270.810394 232.374588,272.132294 230.018188,273.670563 
	C230.500076,276.860046 233.077011,278.537903 235.471329,280.814911 
	C229.687866,282.203796 229.777725,276.072540 226.415024,274.795654 
	C224.460815,276.048126 226.158279,278.609497 224.216766,280.493927 
	C223.085449,275.368134 223.759827,270.667114 223.788742,266.007019 
	C223.796982,264.678680 224.549530,263.791443 225.932373,263.755646 
	C229.015884,263.675903 232.420792,262.781433 234.188370,267.064911 
M231.886139,267.130768 
	C229.647476,265.058685 227.311707,264.027313 225.571655,267.485046 
	C224.957977,268.704559 224.961807,270.890594 226.795288,271.254456 
	C229.431137,271.777557 231.725662,270.926605 231.886139,267.130768 
z"/>
<path fill="#000000" opacity="1.000000" stroke="none" 
	d="
M342.693848,273.980408 
	C342.254364,270.220459 344.469513,265.816833 337.832855,264.597168 
	C342.493958,263.086670 346.088287,263.429230 350.146423,264.106262 
	C340.784027,267.207855 347.846985,275.500610 344.268219,280.643433 
	C341.822144,279.005798 343.054871,276.491302 342.693848,273.980408 
z"/>
</svg>